<svg xmlns="http://www.w3.org/2000/svg" xmlns:xlink="http://www.w3.org/1999/xlink" version="1.1" width="256" height="256" viewBox="0 0 256 256" xml:space="preserve">
<desc>Created with Fabric.js 1.7.22</desc>
<defs>
</defs>
<g transform="translate(128 128) scale(0.72 0.72)" style="">
	<g style="stroke: none; stroke-width: 0; stroke-dasharray: none; stroke-linecap: butt; stroke-linejoin: miter; stroke-miterlimit: 10; fill: none; fill-rule: nonzero; opacity: 1;" transform="translate(-175.05 -175.05000000000004) scale(3.89 3.89)" >
	<path d="M 11.313 16.072 c -2.552 0 -4.628 -2.076 -4.628 -4.628 c 0 -2.552 2.076 -4.628 4.628 -4.628 c 2.552 0 4.628 2.076 4.628 4.628 C 15.942 13.996 13.866 16.072 11.313 16.072 z M 11.313 8.815 c -1.449 0 -2.628 1.179 -2.628 2.628 s 1.179 2.628 2.628 2.628 s 2.628 -1.179 2.628 -2.628 S 12.763 8.815 11.313 8.815 z" style="stroke: none; stroke-width: 1; stroke-dasharray: none; stroke-linecap: butt; stroke-linejoin: miter; stroke-miterlimit: 10; fill: rgb(0,0,0); fill-rule: nonzero; opacity: 1;" transform=" matrix(1 0 0 1 0 0) " stroke-linecap="round" />
	<path d="M 80.35 80.656 c -2.553 0 -4.629 -2.076 -4.629 -4.628 S 77.797 71.4 80.35 71.4 c 2.552 0 4.628 2.076 4.628 4.628 S 82.901 80.656 80.35 80.656 z M 80.35 73.4 c -1.449 0 -2.629 1.179 -2.629 2.628 s 1.18 2.628 2.629 2.628 s 2.628 -1.179 2.628 -2.628 S 81.799 73.4 80.35 73.4 z" style="stroke: none; stroke-width: 1; stroke-dasharray: none; stroke-linecap: butt; stroke-linejoin: miter; stroke-miterlimit: 10; fill: rgb(0,0,0); fill-rule: nonzero; opacity: 1;" transform=" matrix(1 0 0 1 0 0) " stroke-linecap="round" />
	<path d="M 89 36.18 c -0.26 0 -0.521 -0.11 -0.71 -0.29 c -0.04 -0.05 -0.09 -0.1 -0.12 -0.16 c -0.04 -0.05 -0.07 -0.11 -0.09 -0.17 c -0.03 -0.06 -0.05 -0.12 -0.061 -0.19 C 88.01 35.31 88 35.24 88 35.18 c 0 -0.13 0.02 -0.26 0.08 -0.39 c 0.05 -0.12 0.12 -0.23 0.21 -0.32 c 0.38 -0.37 1.04 -0.37 1.42 0 c 0.09 0.09 0.16 0.2 0.21 0.32 c 0.05 0.13 0.08 0.26 0.08 0.39 c 0 0.06 -0.01 0.13 -0.021 0.19 c -0.01 0.07 -0.029 0.13 -0.06 0.19 c -0.021 0.06 -0.05 0.12 -0.09 0.17 c -0.04 0.06 -0.08 0.11 -0.12 0.16 C 89.52 36.07 89.26 36.18 89 36.18 z" style="stroke: none; stroke-width: 1; stroke-dasharray: none; stroke-linecap: butt; stroke-linejoin: miter; stroke-miterlimit: 10; fill: rgb(0,0,0); fill-rule: nonzero; opacity: 1;" transform=" matrix(1 0 0 1 0 0) " stroke-linecap="round" />
	<path d="M 1 50.149 c -0.27 0 -0.52 -0.1 -0.71 -0.29 C 0.2 49.77 0.13 49.66 0.08 49.54 C 0.03 49.41 0 49.29 0 49.149 c 0 -0.13 0.03 -0.26 0.08 -0.38 c 0.05 -0.12 0.12 -0.229 0.21 -0.319 c 0.38 -0.381 1.04 -0.381 1.42 0 c 0.09 0.09 0.16 0.199 0.21 0.319 C 1.97 48.89 2 49.02 2 49.149 c 0 0.141 -0.03 0.271 -0.08 0.391 c -0.05 0.12 -0.12 0.229 -0.21 0.319 C 1.52 50.05 1.27 50.149 1 50.149 z" style="stroke: none; stroke-width: 1; stroke-dasharray: none; stroke-linecap: butt; stroke-linejoin: miter; stroke-miterlimit: 10; fill: rgb(0,0,0); fill-rule: nonzero; opacity: 1;" transform=" matrix(1 0 0 1 0 0) " stroke-linecap="round" />
	<path d="M 46.21 89.85 c -0.13 0 -0.26 -0.02 -0.38 -0.069 c -0.12 -0.051 -0.23 -0.131 -0.32 -0.221 c -0.1 -0.09 -0.17 -0.2 -0.22 -0.319 c -0.05 -0.131 -0.08 -0.25 -0.08 -0.391 c 0 -0.26 0.11 -0.52 0.3 -0.7 c 0.09 -0.1 0.2 -0.17 0.32 -0.22 c 0.18 -0.08 0.38 -0.1 0.581 -0.06 c 0.06 0.02 0.12 0.029 0.18 0.06 c 0.06 0.021 0.12 0.061 0.18 0.09 c 0.05 0.04 0.101 0.08 0.15 0.13 c 0.18 0.181 0.29 0.44 0.29 0.7 c 0 0.271 -0.101 0.521 -0.29 0.71 C 46.729 89.75 46.479 89.85 46.21 89.85 z" style="stroke: none; stroke-width: 1; stroke-dasharray: none; stroke-linecap: butt; stroke-linejoin: miter; stroke-miterlimit: 10; fill: rgb(0,0,0); fill-rule: nonzero; opacity: 1;" transform=" matrix(1 0 0 1 0 0) " stroke-linecap="round" />
	<path d="M 57.39 5.65 c -0.26 0 -0.52 -0.11 -0.71 -0.3 c -0.18 -0.18 -0.29 -0.44 -0.29 -0.7 c 0 -0.27 0.11 -0.52 0.29 -0.71 c 0.24 -0.23 0.58 -0.34 0.91 -0.27 c 0.06 0.01 0.12 0.03 0.18 0.05 c 0.061 0.03 0.12 0.06 0.181 0.09 C 58 3.85 58.05 3.89 58.1 3.94 c 0.181 0.18 0.29 0.44 0.29 0.71 c 0 0.26 -0.109 0.52 -0.29 0.7 C 58.05 5.4 58 5.44 57.95 5.48 c -0.061 0.03 -0.12 0.06 -0.181 0.09 c -0.06 0.02 -0.12 0.04 -0.18 0.06 C 57.52 5.64 57.46 5.65 57.39 5.65 z" style="stroke: none; stroke-width: 1; stroke-dasharray: none; stroke-linecap: butt; stroke-linejoin: miter; stroke-miterlimit: 10; fill: rgb(0,0,0); fill-rule: nonzero; opacity: 1;" transform=" matrix(1 0 0 1 0 0) " stroke-linecap="round" />
	<path d="M 21.318 50.611 c -0.467 0 -0.885 -0.329 -0.98 -0.805 c -1.366 -6.87 0.213 -14.055 4.334 -19.714 c 2.967 -4.073 7.029 -7.129 11.749 -8.837 c 3.966 -1.435 8.26 -1.854 12.422 -1.215 c 3.931 0.604 7.721 2.17 10.959 4.528 c 5.863 4.27 9.598 10.867 10.244 18.099 c 0.049 0.55 -0.357 1.036 -0.907 1.085 c -0.553 0.049 -1.035 -0.357 -1.085 -0.907 c -0.595 -6.657 -4.032 -12.729 -9.43 -16.659 c -3.023 -2.202 -6.417 -3.604 -10.086 -4.168 c -3.828 -0.589 -7.785 -0.203 -11.437 1.12 c -4.343 1.572 -8.082 4.384 -10.813 8.134 c -3.793 5.208 -5.247 11.823 -3.989 18.146 c 0.107 0.542 -0.244 1.068 -0.786 1.176 C 21.449 50.605 21.383 50.611 21.318 50.611 z" style="stroke: none; stroke-width: 1; stroke-dasharray: none; stroke-linecap: butt; stroke-linejoin: miter; stroke-miterlimit: 10; fill: rgb(0,0,0); fill-rule: nonzero; opacity: 1;" transform=" matrix(1 0 0 1 0 0) " stroke-linecap="round" />
	<path d="M 44.967 70.031 c -5.134 0 -10.311 -1.563 -14.77 -4.809 c -1.734 -1.264 -3.297 -2.737 -4.646 -4.38 c -0.351 -0.427 -0.289 -1.057 0.138 -1.407 c 0.427 -0.352 1.057 -0.288 1.408 0.138 c 1.242 1.513 2.681 2.869 4.278 4.032 c 10.318 7.515 24.823 5.231 32.335 -5.086 c 1.346 -1.847 2.405 -3.865 3.149 -5.998 c 0.183 -0.522 0.756 -0.797 1.273 -0.615 c 0.521 0.183 0.797 0.752 0.615 1.273 c -0.81 2.318 -1.96 4.512 -3.421 6.518 C 60.412 66.447 52.74 70.031 44.967 70.031 z" style="stroke: none; stroke-width: 1; stroke-dasharray: none; stroke-linecap: butt; stroke-linejoin: miter; stroke-miterlimit: 10; fill: rgb(0,0,0); fill-rule: nonzero; opacity: 1;" transform=" matrix(1 0 0 1 0 0) " stroke-linecap="round" />
	<path d="M 27.905 56.399 c -10.227 0 -18.216 -1.727 -18.864 -5.85 c -0.427 -2.719 2.34 -5.51 8.226 -8.296 c 0.499 -0.235 1.095 -0.024 1.332 0.476 c 0.236 0.499 0.023 1.095 -0.476 1.332 c -4.707 2.229 -7.363 4.539 -7.106 6.178 c 0.593 3.773 15.211 5.784 35.238 2.633 c 9.261 -1.456 17.811 -3.745 24.074 -6.445 c 6.723 -2.897 8.878 -5.452 8.653 -6.876 c -0.234 -1.494 -3.039 -2.813 -7.501 -3.531 c -0.546 -0.087 -0.917 -0.601 -0.829 -1.146 c 0.088 -0.546 0.598 -0.921 1.146 -0.829 c 5.681 0.913 8.763 2.661 9.161 5.195 c 0.582 3.703 -5.028 6.951 -9.838 9.024 c -6.413 2.764 -15.134 5.103 -24.556 6.585 C 40.25 55.842 33.715 56.399 27.905 56.399 z" style="stroke: none; stroke-width: 1; stroke-dasharray: none; stroke-linecap: butt; stroke-linejoin: miter; stroke-miterlimit: 10; fill: rgb(0,0,0); fill-rule: nonzero; opacity: 1;" transform=" matrix(1 0 0 1 0 0) " stroke-linecap="round" />
	<path d="M 30.09 45.895 c -0.552 0 -1 -0.448 -1 -1 c 0 -8.722 7.095 -15.817 15.817 -15.817 c 0.552 0 1 0.448 1 1 s -0.448 1 -1 1 c -7.619 0 -13.817 6.198 -13.817 13.817 C 31.09 45.447 30.642 45.895 30.09 45.895 z" style="stroke: none; stroke-width: 1; stroke-dasharray: none; stroke-linecap: butt; stroke-linejoin: miter; stroke-miterlimit: 10; fill: rgb(0,0,0); fill-rule: nonzero; opacity: 1;" transform=" matrix(1 0 0 1 0 0) " stroke-linecap="round" />
	<path d="M 4.67 75.734 H 3.506 c -0.552 0 -1 -0.447 -1 -1 s 0.448 -1 1 -1 H 4.67 c 0.552 0 1 0.447 1 1 S 5.223 75.734 4.67 75.734 z" style="stroke: none; stroke-width: 1; stroke-dasharray: none; stroke-linecap: butt; stroke-linejoin: miter; stroke-miterlimit: 10; fill: rgb(0,0,0); fill-rule: nonzero; opacity: 1;" transform=" matrix(1 0 0 1 0 0) " stroke-linecap="round" />
	<path d="M 10.506 75.734 H 9.341 c -0.552 0 -1 -0.447 -1 -1 s 0.448 -1 1 -1 h 1.165 c 0.552 0 1 0.447 1 1 S 11.058 75.734 10.506 75.734 z" style="stroke: none; stroke-width: 1; stroke-dasharray: none; stroke-linecap: butt; stroke-linejoin: miter; stroke-miterlimit: 10; fill: rgb(0,0,0); fill-rule: nonzero; opacity: 1;" transform=" matrix(1 0 0 1 0 0) " stroke-linecap="round" />
	<path d="M 7.006 73.398 c -0.552 0 -1 -0.447 -1 -1 v -1.164 c 0 -0.553 0.448 -1 1 -1 s 1 0.447 1 1 v 1.164 C 8.006 72.951 7.558 73.398 7.006 73.398 z" style="stroke: none; stroke-width: 1; stroke-dasharray: none; stroke-linecap: butt; stroke-linejoin: miter; stroke-miterlimit: 10; fill: rgb(0,0,0); fill-rule: nonzero; opacity: 1;" transform=" matrix(1 0 0 1 0 0) " stroke-linecap="round" />
	<path d="M 7.006 79.234 c -0.552 0 -1 -0.447 -1 -1 V 77.07 c 0 -0.553 0.448 -1 1 -1 s 1 0.447 1 1 v 1.164 C 8.006 78.787 7.558 79.234 7.006 79.234 z" style="stroke: none; stroke-width: 1; stroke-dasharray: none; stroke-linecap: butt; stroke-linejoin: miter; stroke-miterlimit: 10; fill: rgb(0,0,0); fill-rule: nonzero; opacity: 1;" transform=" matrix(1 0 0 1 0 0) " stroke-linecap="round" />
	<path d="M 76.664 5.646 H 75.5 c -0.553 0 -1 -0.448 -1 -1 s 0.447 -1 1 -1 h 1.164 c 0.553 0 1 0.448 1 1 S 77.217 5.646 76.664 5.646 z" style="stroke: none; stroke-width: 1; stroke-dasharray: none; stroke-linecap: butt; stroke-linejoin: miter; stroke-miterlimit: 10; fill: rgb(0,0,0); fill-rule: nonzero; opacity: 1;" transform=" matrix(1 0 0 1 0 0) " stroke-linecap="round" />
	<path d="M 82.5 5.646 h -1.164 c -0.553 0 -1 -0.448 -1 -1 s 0.447 -1 1 -1 H 82.5 c 0.553 0 1 0.448 1 1 S 83.053 5.646 82.5 5.646 z" style="stroke: none; stroke-width: 1; stroke-dasharray: none; stroke-linecap: butt; stroke-linejoin: miter; stroke-miterlimit: 10; fill: rgb(0,0,0); fill-rule: nonzero; opacity: 1;" transform=" matrix(1 0 0 1 0 0) " stroke-linecap="round" />
	<path d="M 79 3.311 c -0.553 0 -1 -0.448 -1 -1 V 1.146 c 0 -0.552 0.447 -1 1 -1 s 1 0.448 1 1 v 1.165 C 80 2.863 79.553 3.311 79 3.311 z" style="stroke: none; stroke-width: 1; stroke-dasharray: none; stroke-linecap: butt; stroke-linejoin: miter; stroke-miterlimit: 10; fill: rgb(0,0,0); fill-rule: nonzero; opacity: 1;" transform=" matrix(1 0 0 1 0 0) " stroke-linecap="round" />
	<path d="M 79 9.146 c -0.553 0 -1 -0.448 -1 -1 V 6.982 c 0 -0.552 0.447 -1 1 -1 s 1 0.448 1 1 v 1.164 C 80 8.698 79.553 9.146 79 9.146 z" style="stroke: none; stroke-width: 1; stroke-dasharray: none; stroke-linecap: butt; stroke-linejoin: miter; stroke-miterlimit: 10; fill: rgb(0,0,0); fill-rule: nonzero; opacity: 1;" transform=" matrix(1 0 0 1 0 0) " stroke-linecap="round" />
</g>
</g>
</svg>